<mxfile host="Electron" modified="2024-03-15T08:16:41.649Z" agent="Mozilla/5.0 (Windows NT 10.0; Win64; x64) AppleWebKit/537.36 (KHTML, like Gecko) draw.io/24.0.4 Chrome/120.0.6099.109 Electron/28.1.0 Safari/537.36" etag="Aa8jCv6deYi6SQtj0YdI" version="24.0.4" type="device">
  <diagram name="Page-1" id="G3tUxIM1QvS3GUymurwh">
    <mxGraphModel dx="3600" dy="1721" grid="1" gridSize="10" guides="1" tooltips="1" connect="1" arrows="1" fold="1" page="1" pageScale="1" pageWidth="850" pageHeight="1100" math="0" shadow="0">
      <root>
        <mxCell id="0" />
        <mxCell id="1" parent="0" />
        <mxCell id="GgZ0am3H4prpHBHlX3ja-29" style="rounded=0;orthogonalLoop=1;jettySize=auto;html=1;exitX=1;exitY=0.3333333333333333;exitDx=0;exitDy=0;exitPerimeter=0;endArrow=none;endFill=0;fontFamily=Times New Roman;fontSize=14;" edge="1" parent="1" source="GgZ0am3H4prpHBHlX3ja-1" target="GgZ0am3H4prpHBHlX3ja-10">
          <mxGeometry relative="1" as="geometry" />
        </mxCell>
        <mxCell id="GgZ0am3H4prpHBHlX3ja-1" value="Quản lý" style="shape=umlActor;verticalLabelPosition=bottom;verticalAlign=top;html=1;fontFamily=Times New Roman;fontSize=14;" vertex="1" parent="1">
          <mxGeometry x="50" y="90" width="30" height="60" as="geometry" />
        </mxCell>
        <mxCell id="GgZ0am3H4prpHBHlX3ja-3" value="Nhân viên" style="shape=umlActor;verticalLabelPosition=bottom;verticalAlign=top;html=1;fontFamily=Times New Roman;fontSize=14;" vertex="1" parent="1">
          <mxGeometry x="40" y="600" width="30" height="60" as="geometry" />
        </mxCell>
        <mxCell id="GgZ0am3H4prpHBHlX3ja-7" value="Xem lịch làm việc" style="ellipse;whiteSpace=wrap;html=1;fillColor=#f8cecc;gradientColor=#ea6b66;strokeColor=#b85450;fontFamily=Times New Roman;fontSize=14;" vertex="1" parent="1">
          <mxGeometry x="210" y="680" width="170" height="80" as="geometry" />
        </mxCell>
        <mxCell id="GgZ0am3H4prpHBHlX3ja-8" value="Quản lý thông tin nhân viên" style="ellipse;whiteSpace=wrap;html=1;fillColor=#f8cecc;gradientColor=#ea6b66;strokeColor=#b85450;fontFamily=Times New Roman;fontSize=14;" vertex="1" parent="1">
          <mxGeometry x="215" y="350" width="160" height="85" as="geometry" />
        </mxCell>
        <mxCell id="GgZ0am3H4prpHBHlX3ja-9" value="Tính lương, thưởng, phạt" style="ellipse;whiteSpace=wrap;html=1;fillColor=#f8cecc;gradientColor=#ea6b66;strokeColor=#b85450;fontFamily=Times New Roman;fontSize=14;" vertex="1" parent="1">
          <mxGeometry x="220" y="150" width="160" height="80" as="geometry" />
        </mxCell>
        <mxCell id="GgZ0am3H4prpHBHlX3ja-10" value="Phân lịch làm việc" style="ellipse;whiteSpace=wrap;html=1;fillColor=#f8cecc;gradientColor=#ea6b66;strokeColor=#b85450;fontFamily=Times New Roman;fontSize=14;" vertex="1" parent="1">
          <mxGeometry x="210" y="-60" width="150" height="80" as="geometry" />
        </mxCell>
        <mxCell id="GgZ0am3H4prpHBHlX3ja-11" value="Hiển thị lương, thưởng, phạt của bản thân" style="ellipse;whiteSpace=wrap;html=1;fillColor=#f8cecc;gradientColor=#ea6b66;strokeColor=#b85450;fontFamily=Times New Roman;fontSize=14;" vertex="1" parent="1">
          <mxGeometry x="200" y="550" width="180" height="80" as="geometry" />
        </mxCell>
        <object placeholders="1" c4Name="Hệ thống quản lý nhân viên" c4Type="SystemScopeBoundary" c4Application="Công Ty TNHH Năm Nhạc" label="&lt;font style=&quot;font-size: 14px;&quot;&gt;&lt;b style=&quot;font-size: 14px;&quot;&gt;&lt;div style=&quot;text-align: left; font-size: 14px;&quot;&gt;%c4Name%&lt;/div&gt;&lt;/b&gt;&lt;/font&gt;&lt;div style=&quot;text-align: left; font-size: 14px;&quot;&gt;[%c4Application%]&lt;/div&gt;" id="GgZ0am3H4prpHBHlX3ja-12">
          <mxCell style="rounded=1;fontSize=14;whiteSpace=wrap;html=1;dashed=1;arcSize=20;fillColor=none;strokeColor=#666666;fontColor=#333333;labelBackgroundColor=none;align=left;verticalAlign=bottom;labelBorderColor=none;spacingTop=0;spacing=10;dashPattern=8 4;metaEdit=1;rotatable=0;perimeter=rectanglePerimeter;noLabel=0;labelPadding=0;allowArrows=0;connectable=0;expand=0;recursiveResize=0;editable=1;pointerEvents=0;absoluteArcSize=1;points=[[0.25,0,0],[0.5,0,0],[0.75,0,0],[1,0.25,0],[1,0.5,0],[1,0.75,0],[0.75,1,0],[0.5,1,0],[0.25,1,0],[0,0.75,0],[0,0.5,0],[0,0.25,0]];fontFamily=Times New Roman;" vertex="1" parent="1">
            <mxGeometry x="150" y="-190" width="700" height="1030" as="geometry" />
          </mxCell>
        </object>
        <mxCell id="GgZ0am3H4prpHBHlX3ja-13" value="Nhập lịch làm việc" style="ellipse;whiteSpace=wrap;html=1;fillColor=#F8ECE9;strokeColor=#b85450;fontFamily=Times New Roman;fontSize=14;" vertex="1" parent="1">
          <mxGeometry x="370" y="-170" width="120" height="50" as="geometry" />
        </mxCell>
        <mxCell id="GgZ0am3H4prpHBHlX3ja-14" value="Tính lương" style="ellipse;whiteSpace=wrap;html=1;fillColor=#F8ECE9;strokeColor=#b85450;fontFamily=Times New Roman;fontSize=14;" vertex="1" parent="1">
          <mxGeometry x="442.5" y="120" width="120" height="50" as="geometry" />
        </mxCell>
        <mxCell id="GgZ0am3H4prpHBHlX3ja-15" value="Sửa lịch làm việc" style="ellipse;whiteSpace=wrap;html=1;fillColor=#F8ECE9;strokeColor=#b85450;fontFamily=Times New Roman;fontSize=14;" vertex="1" parent="1">
          <mxGeometry x="425" y="-100" width="115" height="50" as="geometry" />
        </mxCell>
        <mxCell id="GgZ0am3H4prpHBHlX3ja-16" value="Hiển thị bảng lương toàn bộ nhân viên" style="ellipse;whiteSpace=wrap;html=1;fillColor=#F8ECE9;strokeColor=#b85450;fontFamily=Times New Roman;fontSize=14;" vertex="1" parent="1">
          <mxGeometry x="427.5" y="190" width="132.5" height="50" as="geometry" />
        </mxCell>
        <mxCell id="GgZ0am3H4prpHBHlX3ja-17" value="Hiện thị số ngày làm việc" style="ellipse;whiteSpace=wrap;html=1;fillColor=#F8ECE9;strokeColor=#b85450;fontFamily=Times New Roman;fontSize=14;" vertex="1" parent="1">
          <mxGeometry x="392.5" y="40" width="127.5" height="50" as="geometry" />
        </mxCell>
        <mxCell id="GgZ0am3H4prpHBHlX3ja-18" value="Xoá lịch làm việc" style="ellipse;whiteSpace=wrap;html=1;fillColor=#F8ECE9;strokeColor=#b85450;fontFamily=Times New Roman;fontSize=14;" vertex="1" parent="1">
          <mxGeometry x="432.5" y="-30" width="115" height="50" as="geometry" />
        </mxCell>
        <mxCell id="GgZ0am3H4prpHBHlX3ja-20" value="Xem địa điểm&lt;div style=&quot;font-size: 14px;&quot;&gt;&lt;span style=&quot;color: rgba(0, 0, 0, 0); font-size: 14px; text-align: start; text-wrap: nowrap;&quot;&gt;%3CmxGraphModel%3E%3Croot%3E%3CmxCell%20id%3D%220%22%2F%3E%3CmxCell%20id%3D%221%22%20parent%3D%220%22%2F%3E%3CmxCell%20id%3D%222%22%20style%3D%22rounded%3D0%3BorthogonalLoop%3D1%3BjettySize%3Dauto%3Bhtml%3D1%3BexitX%3D1%3BexitY%3D0.3333333333333333%3BexitDx%3D0%3BexitDy%3D0%3BexitPerimeter%3D0%3BendArrow%3Dnone%3BendFill%3D0%3BentryX%3D0.037%3BentryY%3D0.297%3BentryDx%3D0%3BentryDy%3D0%3BentryPerimeter%3D0%3B%22%20edge%3D%221%22%20parent%3D%221%22%3E%3CmxGeometry%20relative%3D%221%22%20as%3D%22geometry%22%3E%3CmxPoint%20x%3D%2270%22%20y%3D%22620%22%20as%3D%22sourcePoint%22%2F%3E%3CmxPoint%20x%3D%22225%22%20y%3D%22581%22%20as%3D%22targetPoint%22%2F%3E%3C%2FmxGeometry%3E%3C%2FmxCell%3E%3C%2Froot%3E%3C%2FmxGraphModel%3E&lt;/span&gt;&lt;br style=&quot;font-size: 14px;&quot;&gt;&lt;/div&gt;" style="ellipse;whiteSpace=wrap;html=1;fillColor=#F8ECE9;strokeColor=#b85450;fontFamily=Times New Roman;fontSize=14;" vertex="1" parent="1">
          <mxGeometry x="480" y="680" width="120" height="50" as="geometry" />
        </mxCell>
        <mxCell id="GgZ0am3H4prpHBHlX3ja-22" value="Xoá thông tin nhân viên" style="ellipse;whiteSpace=wrap;html=1;fillColor=#F8ECE9;strokeColor=#ae4132;fontFamily=Times New Roman;fontSize=14;" vertex="1" parent="1">
          <mxGeometry x="420" y="367.5" width="115" height="50" as="geometry" />
        </mxCell>
        <mxCell id="GgZ0am3H4prpHBHlX3ja-23" value="Sửa thông tin nhân viên" style="ellipse;whiteSpace=wrap;html=1;fillColor=#F8ECE9;strokeColor=#b85450;fontFamily=Times New Roman;fontSize=14;" vertex="1" parent="1">
          <mxGeometry x="392.5" y="435" width="110" height="50" as="geometry" />
        </mxCell>
        <mxCell id="GgZ0am3H4prpHBHlX3ja-30" style="rounded=0;orthogonalLoop=1;jettySize=auto;html=1;exitX=1;exitY=0.3333333333333333;exitDx=0;exitDy=0;exitPerimeter=0;endArrow=none;endFill=0;fontFamily=Times New Roman;fontSize=14;" edge="1" parent="1" source="GgZ0am3H4prpHBHlX3ja-1" target="GgZ0am3H4prpHBHlX3ja-9">
          <mxGeometry relative="1" as="geometry">
            <mxPoint x="90" y="120" as="sourcePoint" />
            <mxPoint x="248" y="48" as="targetPoint" />
          </mxGeometry>
        </mxCell>
        <mxCell id="GgZ0am3H4prpHBHlX3ja-31" style="rounded=0;orthogonalLoop=1;jettySize=auto;html=1;exitX=1;exitY=0.3333333333333333;exitDx=0;exitDy=0;exitPerimeter=0;endArrow=none;endFill=0;entryX=0.077;entryY=0.28;entryDx=0;entryDy=0;entryPerimeter=0;fontFamily=Times New Roman;fontSize=14;" edge="1" parent="1" source="GgZ0am3H4prpHBHlX3ja-1" target="GgZ0am3H4prpHBHlX3ja-8">
          <mxGeometry relative="1" as="geometry">
            <mxPoint x="100" y="130" as="sourcePoint" />
            <mxPoint x="258" y="58" as="targetPoint" />
          </mxGeometry>
        </mxCell>
        <mxCell id="GgZ0am3H4prpHBHlX3ja-33" style="rounded=0;orthogonalLoop=1;jettySize=auto;html=1;exitX=1;exitY=0.3333333333333333;exitDx=0;exitDy=0;exitPerimeter=0;endArrow=none;endFill=0;entryX=0.037;entryY=0.297;entryDx=0;entryDy=0;entryPerimeter=0;fontFamily=Times New Roman;fontSize=14;" edge="1" parent="1" source="GgZ0am3H4prpHBHlX3ja-3" target="GgZ0am3H4prpHBHlX3ja-11">
          <mxGeometry relative="1" as="geometry">
            <mxPoint x="100" y="130" as="sourcePoint" />
            <mxPoint x="251" y="350" as="targetPoint" />
          </mxGeometry>
        </mxCell>
        <mxCell id="GgZ0am3H4prpHBHlX3ja-34" style="rounded=0;orthogonalLoop=1;jettySize=auto;html=1;endArrow=none;endFill=0;exitX=1;exitY=0.3333333333333333;exitDx=0;exitDy=0;exitPerimeter=0;fontFamily=Times New Roman;fontSize=14;" edge="1" parent="1" source="GgZ0am3H4prpHBHlX3ja-3" target="GgZ0am3H4prpHBHlX3ja-7">
          <mxGeometry relative="1" as="geometry">
            <mxPoint x="80" y="630" as="sourcePoint" />
            <mxPoint x="235" y="591" as="targetPoint" />
          </mxGeometry>
        </mxCell>
        <mxCell id="GgZ0am3H4prpHBHlX3ja-35" value="Xác nhận hoàn thành công việc" style="ellipse;whiteSpace=wrap;html=1;fillColor=#F8ECE9;strokeColor=#b85450;fontFamily=Times New Roman;fontSize=14;" vertex="1" parent="1">
          <mxGeometry x="475" y="760" width="130" height="50" as="geometry" />
        </mxCell>
        <mxCell id="GgZ0am3H4prpHBHlX3ja-36" value="Đăng nhập" style="ellipse;whiteSpace=wrap;html=1;fillColor=#ffcd28;gradientColor=#ffa500;strokeColor=#d79b00;fontFamily=Times New Roman;fontSize=14;" vertex="1" parent="1">
          <mxGeometry x="740" y="450" width="100" height="60" as="geometry" />
        </mxCell>
        <mxCell id="GgZ0am3H4prpHBHlX3ja-37" value="&amp;lt;&amp;lt;include&amp;gt;&amp;gt;" style="html=1;verticalAlign=bottom;labelBackgroundColor=none;endArrow=open;endFill=0;dashed=1;rounded=0;entryX=0;entryY=0.5;entryDx=0;entryDy=0;fontFamily=Times New Roman;fontSize=14;" edge="1" parent="1" target="GgZ0am3H4prpHBHlX3ja-36">
          <mxGeometry width="160" relative="1" as="geometry">
            <mxPoint x="350" y="580" as="sourcePoint" />
            <mxPoint x="500" y="530" as="targetPoint" />
          </mxGeometry>
        </mxCell>
        <mxCell id="GgZ0am3H4prpHBHlX3ja-38" value="&amp;lt;&amp;lt;include&amp;gt;&amp;gt;" style="html=1;verticalAlign=bottom;labelBackgroundColor=none;endArrow=open;endFill=0;dashed=1;rounded=0;entryX=0.608;entryY=0;entryDx=0;entryDy=0;entryPerimeter=0;fontFamily=Times New Roman;fontSize=14;" edge="1" parent="1" source="GgZ0am3H4prpHBHlX3ja-9">
          <mxGeometry x="0.2067" y="11" width="160" relative="1" as="geometry">
            <mxPoint x="290" y="220.0000000000001" as="sourcePoint" />
            <mxPoint x="764.8199999999999" y="456.37" as="targetPoint" />
            <mxPoint as="offset" />
          </mxGeometry>
        </mxCell>
        <mxCell id="GgZ0am3H4prpHBHlX3ja-39" value="&amp;lt;&amp;lt;include&amp;gt;&amp;gt;" style="html=1;verticalAlign=bottom;labelBackgroundColor=none;endArrow=open;endFill=0;dashed=1;rounded=0;exitX=0.951;exitY=0.737;exitDx=0;exitDy=0;exitPerimeter=0;fontFamily=Times New Roman;fontSize=14;" edge="1" parent="1" source="GgZ0am3H4prpHBHlX3ja-8" target="GgZ0am3H4prpHBHlX3ja-36">
          <mxGeometry x="0.3245" y="8" width="160" relative="1" as="geometry">
            <mxPoint x="370" y="600" as="sourcePoint" />
            <mxPoint x="535" y="550" as="targetPoint" />
            <mxPoint as="offset" />
          </mxGeometry>
        </mxCell>
        <mxCell id="GgZ0am3H4prpHBHlX3ja-40" value="&amp;lt;&amp;lt;include&amp;gt;&amp;gt;" style="html=1;verticalAlign=bottom;labelBackgroundColor=none;endArrow=open;endFill=0;dashed=1;rounded=0;entryX=0.028;entryY=0.7;entryDx=0;entryDy=0;exitX=1;exitY=0.5;exitDx=0;exitDy=0;entryPerimeter=0;fontFamily=Times New Roman;fontSize=14;" edge="1" parent="1" source="GgZ0am3H4prpHBHlX3ja-7" target="GgZ0am3H4prpHBHlX3ja-36">
          <mxGeometry width="160" relative="1" as="geometry">
            <mxPoint x="380" y="610" as="sourcePoint" />
            <mxPoint x="545" y="560" as="targetPoint" />
          </mxGeometry>
        </mxCell>
        <mxCell id="GgZ0am3H4prpHBHlX3ja-41" value="&amp;lt;&amp;lt;include&amp;gt;&amp;gt;" style="html=1;verticalAlign=bottom;labelBackgroundColor=none;endArrow=open;endFill=0;dashed=1;rounded=0;entryX=0.332;entryY=0.06;entryDx=0;entryDy=0;entryPerimeter=0;exitX=0.42;exitY=1.006;exitDx=0;exitDy=0;exitPerimeter=0;fontFamily=Times New Roman;fontSize=14;" edge="1" parent="1" source="GgZ0am3H4prpHBHlX3ja-10" target="GgZ0am3H4prpHBHlX3ja-36">
          <mxGeometry x="0.2264" y="3" width="160" relative="1" as="geometry">
            <mxPoint x="370" y="10" as="sourcePoint" />
            <mxPoint x="589" y="510" as="targetPoint" />
            <mxPoint as="offset" />
          </mxGeometry>
        </mxCell>
        <mxCell id="GgZ0am3H4prpHBHlX3ja-43" value="&amp;lt;&amp;lt;extend&amp;gt;&amp;gt;" style="html=1;verticalAlign=bottom;labelBackgroundColor=none;endArrow=open;endFill=0;dashed=1;rounded=0;entryX=1;entryY=0;entryDx=0;entryDy=0;exitX=0.08;exitY=0.77;exitDx=0;exitDy=0;exitPerimeter=0;fontFamily=Times New Roman;fontSize=14;" edge="1" parent="1" source="GgZ0am3H4prpHBHlX3ja-13" target="GgZ0am3H4prpHBHlX3ja-10">
          <mxGeometry width="160" relative="1" as="geometry">
            <mxPoint x="500" y="60" as="sourcePoint" />
            <mxPoint x="670" y="60" as="targetPoint" />
          </mxGeometry>
        </mxCell>
        <mxCell id="GgZ0am3H4prpHBHlX3ja-45" value="&amp;lt;&amp;lt;extend&amp;gt;&amp;gt;" style="html=1;verticalAlign=bottom;labelBackgroundColor=none;endArrow=open;endFill=0;dashed=1;rounded=0;exitX=0.074;exitY=0.71;exitDx=0;exitDy=0;exitPerimeter=0;fontFamily=Times New Roman;fontSize=14;" edge="1" parent="1" source="GgZ0am3H4prpHBHlX3ja-15" target="GgZ0am3H4prpHBHlX3ja-10">
          <mxGeometry width="160" relative="1" as="geometry">
            <mxPoint x="410" y="10" as="sourcePoint" />
            <mxPoint x="350" y="15" as="targetPoint" />
          </mxGeometry>
        </mxCell>
        <mxCell id="GgZ0am3H4prpHBHlX3ja-46" value="&amp;lt;&amp;lt;extend&amp;gt;&amp;gt;" style="html=1;verticalAlign=bottom;labelBackgroundColor=none;endArrow=open;endFill=0;dashed=1;rounded=0;exitX=0;exitY=0.5;exitDx=0;exitDy=0;fontFamily=Times New Roman;fontSize=14;" edge="1" parent="1" source="GgZ0am3H4prpHBHlX3ja-18" target="GgZ0am3H4prpHBHlX3ja-10">
          <mxGeometry x="-0.0022" width="160" relative="1" as="geometry">
            <mxPoint x="428" y="-19" as="sourcePoint" />
            <mxPoint x="375" y="24" as="targetPoint" />
            <mxPoint as="offset" />
          </mxGeometry>
        </mxCell>
        <mxCell id="GgZ0am3H4prpHBHlX3ja-47" value="&amp;lt;&amp;lt;extend&amp;gt;&amp;gt;" style="html=1;verticalAlign=bottom;labelBackgroundColor=none;endArrow=open;endFill=0;dashed=1;rounded=0;entryX=0.786;entryY=0.857;entryDx=0;entryDy=0;exitX=0.036;exitY=0.22;exitDx=0;exitDy=0;exitPerimeter=0;entryPerimeter=0;fontFamily=Times New Roman;fontSize=14;" edge="1" parent="1" source="GgZ0am3H4prpHBHlX3ja-17" target="GgZ0am3H4prpHBHlX3ja-10">
          <mxGeometry x="0.0015" width="160" relative="1" as="geometry">
            <mxPoint x="425" y="70" as="sourcePoint" />
            <mxPoint x="349" y="50" as="targetPoint" />
            <mxPoint as="offset" />
          </mxGeometry>
        </mxCell>
        <mxCell id="GgZ0am3H4prpHBHlX3ja-48" value="&amp;lt;&amp;lt;extend&amp;gt;&amp;gt;" style="html=1;verticalAlign=bottom;labelBackgroundColor=none;endArrow=open;endFill=0;dashed=1;rounded=0;exitX=0;exitY=0.5;exitDx=0;exitDy=0;fontFamily=Times New Roman;fontSize=14;" edge="1" parent="1" source="GgZ0am3H4prpHBHlX3ja-14" target="GgZ0am3H4prpHBHlX3ja-9">
          <mxGeometry width="160" relative="1" as="geometry">
            <mxPoint x="340" y="130" as="sourcePoint" />
            <mxPoint x="500" y="130" as="targetPoint" />
          </mxGeometry>
        </mxCell>
        <mxCell id="GgZ0am3H4prpHBHlX3ja-49" value="&amp;lt;&amp;lt;extend&amp;gt;&amp;gt;" style="html=1;verticalAlign=bottom;labelBackgroundColor=none;endArrow=open;endFill=0;dashed=1;rounded=0;exitX=0.063;exitY=0.27;exitDx=0;exitDy=0;entryX=1;entryY=0.5;entryDx=0;entryDy=0;exitPerimeter=0;fontFamily=Times New Roman;fontSize=14;" edge="1" parent="1" source="GgZ0am3H4prpHBHlX3ja-16" target="GgZ0am3H4prpHBHlX3ja-9">
          <mxGeometry width="160" relative="1" as="geometry">
            <mxPoint x="440" y="180" as="sourcePoint" />
            <mxPoint x="368" y="188" as="targetPoint" />
          </mxGeometry>
        </mxCell>
        <mxCell id="GgZ0am3H4prpHBHlX3ja-50" value="&amp;lt;&amp;lt;extend&amp;gt;&amp;gt;" style="html=1;verticalAlign=bottom;labelBackgroundColor=none;endArrow=open;endFill=0;dashed=1;rounded=0;exitX=0.055;exitY=0.35;exitDx=0;exitDy=0;entryX=1;entryY=0;entryDx=0;entryDy=0;exitPerimeter=0;fontFamily=Times New Roman;fontSize=14;" edge="1" parent="1" source="GgZ0am3H4prpHBHlX3ja-21" target="GgZ0am3H4prpHBHlX3ja-8">
          <mxGeometry width="160" relative="1" as="geometry">
            <mxPoint x="442" y="231" as="sourcePoint" />
            <mxPoint x="370" y="195" as="targetPoint" />
          </mxGeometry>
        </mxCell>
        <mxCell id="GgZ0am3H4prpHBHlX3ja-51" value="&amp;lt;&amp;lt;extend&amp;gt;&amp;gt;" style="html=1;verticalAlign=bottom;labelBackgroundColor=none;endArrow=open;endFill=0;dashed=1;rounded=0;exitX=0;exitY=0.5;exitDx=0;exitDy=0;entryX=1;entryY=0.5;entryDx=0;entryDy=0;fontFamily=Times New Roman;fontSize=14;" edge="1" parent="1" source="GgZ0am3H4prpHBHlX3ja-22" target="GgZ0am3H4prpHBHlX3ja-8">
          <mxGeometry width="160" relative="1" as="geometry">
            <mxPoint x="452" y="241" as="sourcePoint" />
            <mxPoint x="380" y="205" as="targetPoint" />
          </mxGeometry>
        </mxCell>
        <mxCell id="GgZ0am3H4prpHBHlX3ja-52" value="&amp;lt;&amp;lt;extend&amp;gt;&amp;gt;" style="html=1;verticalAlign=bottom;labelBackgroundColor=none;endArrow=open;endFill=0;dashed=1;rounded=0;entryX=0.774;entryY=0.943;entryDx=0;entryDy=0;entryPerimeter=0;fontFamily=Times New Roman;fontSize=14;" edge="1" parent="1" source="GgZ0am3H4prpHBHlX3ja-23" target="GgZ0am3H4prpHBHlX3ja-8">
          <mxGeometry width="160" relative="1" as="geometry">
            <mxPoint x="470" y="370" as="sourcePoint" />
            <mxPoint x="370" y="355" as="targetPoint" />
          </mxGeometry>
        </mxCell>
        <mxCell id="GgZ0am3H4prpHBHlX3ja-53" value="&amp;lt;&amp;lt;extend&amp;gt;&amp;gt;" style="html=1;verticalAlign=bottom;labelBackgroundColor=none;endArrow=open;endFill=0;dashed=1;rounded=0;entryX=1;entryY=0.5;entryDx=0;entryDy=0;fontFamily=Times New Roman;fontSize=14;" edge="1" parent="1" source="GgZ0am3H4prpHBHlX3ja-20" target="GgZ0am3H4prpHBHlX3ja-7">
          <mxGeometry width="160" relative="1" as="geometry">
            <mxPoint x="436" y="426" as="sourcePoint" />
            <mxPoint x="338" y="386" as="targetPoint" />
          </mxGeometry>
        </mxCell>
        <mxCell id="GgZ0am3H4prpHBHlX3ja-54" value="&amp;lt;&amp;lt;extend&amp;gt;&amp;gt;" style="html=1;verticalAlign=bottom;labelBackgroundColor=none;endArrow=open;endFill=0;dashed=1;rounded=0;entryX=0.943;entryY=0.731;entryDx=0;entryDy=0;exitX=0.093;exitY=0.2;exitDx=0;exitDy=0;exitPerimeter=0;entryPerimeter=0;fontFamily=Times New Roman;fontSize=14;" edge="1" parent="1" source="GgZ0am3H4prpHBHlX3ja-35" target="GgZ0am3H4prpHBHlX3ja-7">
          <mxGeometry width="160" relative="1" as="geometry">
            <mxPoint x="435" y="700" as="sourcePoint" />
            <mxPoint x="339" y="700" as="targetPoint" />
          </mxGeometry>
        </mxCell>
        <mxCell id="GgZ0am3H4prpHBHlX3ja-21" value="Nhập thông tin&amp;nbsp; nhân viên" style="ellipse;whiteSpace=wrap;html=1;fillColor=#F8ECE9;strokeColor=#b85450;fontFamily=Times New Roman;fontSize=14;" vertex="1" parent="1">
          <mxGeometry x="380" y="300" width="120" height="50" as="geometry" />
        </mxCell>
        <mxCell id="GgZ0am3H4prpHBHlX3ja-57" style="edgeStyle=orthogonalEdgeStyle;rounded=0;orthogonalLoop=1;jettySize=auto;html=1;exitX=0.5;exitY=1;exitDx=0;exitDy=0;fontSize=14;" edge="1" parent="1" source="GgZ0am3H4prpHBHlX3ja-35" target="GgZ0am3H4prpHBHlX3ja-35">
          <mxGeometry relative="1" as="geometry" />
        </mxCell>
      </root>
    </mxGraphModel>
  </diagram>
</mxfile>
